<svg xmlns="http://www.w3.org/2000/svg" width="784" height="474" viewBox="0 0 784 474" shape-rendering="geometricPrecision">
  <defs>
    <linearGradient id="topGrad" x1="18%" y1="8%" x2="82%" y2="88%">
      <stop offset="0%" stop-color="#7a33ff"/>
      <stop offset="48%" stop-color="#d640ff"/>
      <stop offset="100%" stop-color="#5030ff"/>
    </linearGradient>
    <radialGradient id="shine" cx="58%" cy="42%" r="42%">
      <stop offset="0%" stop-color="#ffffff" stop-opacity="0.32"/>
      <stop offset="20%" stop-color="#ffdbff" stop-opacity="0.18"/>
      <stop offset="55%" stop-color="#9d7bff" stop-opacity="0.05"/>
      <stop offset="100%" stop-color="#000000" stop-opacity="0"/>
    </radialGradient>
    <linearGradient id="sideLeft" x1="0%" y1="0%" x2="0%" y2="100%">
      <stop offset="0%" stop-color="#4330d8"/>
      <stop offset="100%" stop-color="#24198f"/>
    </linearGradient>
    <linearGradient id="sideRight" x1="0%" y1="0%" x2="0%" y2="100%">
      <stop offset="0%" stop-color="#3023bf"/>
      <stop offset="100%" stop-color="#140d6a"/>
    </linearGradient>
    <filter id="neon" x="-30%" y="-30%" width="160%" height="180%">
      <feGaussianBlur in="SourceGraphic" stdDeviation="0.65" result="soft"/>
      <feColorMatrix in="soft" type="matrix" values="1 0 0 0 0  0 1 0 0 0.95  0 0 1 0 1  0 0 0 1 0" result="tint"/>
      <feGaussianBlur in="tint" stdDeviation="3.2" result="glow"/>
      <feMerge>
        <feMergeNode in="glow"/>
        <feMergeNode in="SourceGraphic"/>
      </feMerge>
    </filter>
  </defs>

  <g filter="url(#neon)">
    <polygon points="72.0,216.0 104.0,232.0 104.0,250.0 72.0,234.0" fill="url(#sideLeft)" stroke="#63f6ff" stroke-width="1.8" stroke-linejoin="round"/>
    <polygon points="104.0,232.0 136.0,248.0 136.0,266.0 104.0,250.0" fill="url(#sideLeft)" stroke="#63f6ff" stroke-width="1.8" stroke-linejoin="round"/>
    <polygon points="40.0,296.0 72.0,312.0 72.0,330.0 40.0,314.0" fill="url(#sideLeft)" stroke="#63f6ff" stroke-width="1.8" stroke-linejoin="round"/>
    <polygon points="72.0,312.0 104.0,328.0 104.0,346.0 72.0,330.0" fill="url(#sideLeft)" stroke="#63f6ff" stroke-width="1.8" stroke-linejoin="round"/>
    <polygon points="104.0,328.0 136.0,344.0 136.0,362.0 104.0,346.0" fill="url(#sideLeft)" stroke="#63f6ff" stroke-width="1.8" stroke-linejoin="round"/>
    <polygon points="136.0,344.0 168.0,360.0 168.0,378.0 136.0,362.0" fill="url(#sideLeft)" stroke="#63f6ff" stroke-width="1.8" stroke-linejoin="round"/>
    <polygon points="168.0,360.0 200.0,376.0 200.0,394.0 168.0,378.0" fill="url(#sideLeft)" stroke="#63f6ff" stroke-width="1.8" stroke-linejoin="round"/>
    <polygon points="200.0,376.0 232.0,392.0 232.0,410.0 200.0,394.0" fill="url(#sideLeft)" stroke="#63f6ff" stroke-width="1.8" stroke-linejoin="round"/>
    <polygon points="232.0,392.0 264.0,408.0 264.0,426.0 232.0,410.0" fill="url(#sideLeft)" stroke="#63f6ff" stroke-width="1.8" stroke-linejoin="round"/>
    <polygon points="264.0,408.0 296.0,392.0 296.0,410.0 264.0,426.0" fill="url(#sideRight)" stroke="#63f6ff" stroke-width="1.8" stroke-linejoin="round"/>
    <polygon points="296.0,392.0 328.0,376.0 328.0,394.0 296.0,410.0" fill="url(#sideRight)" stroke="#63f6ff" stroke-width="1.8" stroke-linejoin="round"/>
    <polygon points="328.0,376.0 360.0,360.0 360.0,378.0 328.0,394.0" fill="url(#sideRight)" stroke="#63f6ff" stroke-width="1.8" stroke-linejoin="round"/>
    <polygon points="296.0,328.0 328.0,312.0 328.0,330.0 296.0,346.0" fill="url(#sideRight)" stroke="#63f6ff" stroke-width="1.8" stroke-linejoin="round"/>
    <polygon points="328.0,312.0 360.0,296.0 360.0,314.0 328.0,330.0" fill="url(#sideRight)" stroke="#63f6ff" stroke-width="1.8" stroke-linejoin="round"/>
    <polygon points="360.0,296.0 392.0,312.0 392.0,330.0 360.0,314.0" fill="url(#sideLeft)" stroke="#63f6ff" stroke-width="1.8" stroke-linejoin="round"/>
    <polygon points="392.0,312.0 424.0,328.0 424.0,346.0 392.0,330.0" fill="url(#sideLeft)" stroke="#63f6ff" stroke-width="1.8" stroke-linejoin="round"/>
    <polygon points="424.0,328.0 456.0,312.0 456.0,330.0 424.0,346.0" fill="url(#sideRight)" stroke="#63f6ff" stroke-width="1.8" stroke-linejoin="round"/>
    <polygon points="456.0,312.0 488.0,296.0 488.0,314.0 456.0,330.0" fill="url(#sideRight)" stroke="#63f6ff" stroke-width="1.8" stroke-linejoin="round"/>
    <polygon points="488.0,296.0 520.0,280.0 520.0,298.0 488.0,314.0" fill="url(#sideRight)" stroke="#63f6ff" stroke-width="1.8" stroke-linejoin="round"/>
    <polygon points="520.0,280.0 552.0,264.0 552.0,282.0 520.0,298.0" fill="url(#sideRight)" stroke="#63f6ff" stroke-width="1.8" stroke-linejoin="round"/>
    <polygon points="520.0,248.0 552.0,232.0 552.0,250.0 520.0,266.0" fill="url(#sideRight)" stroke="#63f6ff" stroke-width="1.8" stroke-linejoin="round"/>
    <polygon points="552.0,232.0 584.0,216.0 584.0,234.0 552.0,250.0" fill="url(#sideRight)" stroke="#63f6ff" stroke-width="1.8" stroke-linejoin="round"/>
    <polygon points="584.0,216.0 616.0,232.0 616.0,250.0 584.0,234.0" fill="url(#sideLeft)" stroke="#63f6ff" stroke-width="1.8" stroke-linejoin="round"/>
    <polygon points="616.0,232.0 648.0,216.0 648.0,234.0 616.0,250.0" fill="url(#sideRight)" stroke="#63f6ff" stroke-width="1.8" stroke-linejoin="round"/>
    <polygon points="648.0,216.0 680.0,200.0 680.0,218.0 648.0,234.0" fill="url(#sideRight)" stroke="#63f6ff" stroke-width="1.8" stroke-linejoin="round"/>
    <polygon points="680.0,200.0 712.0,184.0 712.0,202.0 680.0,218.0" fill="url(#sideRight)" stroke="#63f6ff" stroke-width="1.8" stroke-linejoin="round"/>
    <polygon points="712.0,184.0 744.0,168.0 744.0,186.0 712.0,202.0" fill="url(#sideRight)" stroke="#63f6ff" stroke-width="1.8" stroke-linejoin="round"/>
    <polygon points="104.0,200.0 72.0,216.0 104.0,232.0 136.0,248.0 104.0,264.0 72.0,280.0 40.0,296.0 72.0,312.0 104.0,328.0 136.0,344.0 168.0,360.0 200.0,376.0 232.0,392.0 264.0,408.0 296.0,392.0 328.0,376.0 360.0,360.0 328.0,344.0 296.0,328.0 328.0,312.0 360.0,296.0 392.0,312.0 424.0,328.0 456.0,312.0 488.0,296.0 520.0,280.0 552.0,264.0 520.0,248.0 552.0,232.0 584.0,216.0 616.0,232.0 648.0,216.0 680.0,200.0 712.0,184.0 744.0,168.0 712.0,152.0 680.0,136.0 648.0,120.0 616.0,104.0 584.0,88.0 552.0,72.0 520.0,56.0 488.0,40.0 456.0,56.0 424.0,72.0 392.0,56.0 360.0,72.0 328.0,88.0 296.0,104.0 264.0,120.0 232.0,136.0 200.0,152.0 168.0,168.0 136.0,184.0" fill="url(#topGrad)" stroke="#63f6ff" stroke-width="2.4" stroke-linejoin="round"/>
    <polygon points="104.0,200.0 72.0,216.0 104.0,232.0 136.0,248.0 104.0,264.0 72.0,280.0 40.0,296.0 72.0,312.0 104.0,328.0 136.0,344.0 168.0,360.0 200.0,376.0 232.0,392.0 264.0,408.0 296.0,392.0 328.0,376.0 360.0,360.0 328.0,344.0 296.0,328.0 328.0,312.0 360.0,296.0 392.0,312.0 424.0,328.0 456.0,312.0 488.0,296.0 520.0,280.0 552.0,264.0 520.0,248.0 552.0,232.0 584.0,216.0 616.0,232.0 648.0,216.0 680.0,200.0 712.0,184.0 744.0,168.0 712.0,152.0 680.0,136.0 648.0,120.0 616.0,104.0 584.0,88.0 552.0,72.0 520.0,56.0 488.0,40.0 456.0,56.0 424.0,72.0 392.0,56.0 360.0,72.0 328.0,88.0 296.0,104.0 264.0,120.0 232.0,136.0 200.0,152.0 168.0,168.0 136.0,184.0" fill="url(#shine)"/>
  </g>
</svg>